<svg xmlns="http://www.w3.org/2000/svg" viewBox="0 0 256 256"><rect width="256" height="256" rx="48" fill="#1B2027"/><path d="M67 43h67v18h12v112H55V61h12z" fill="#3C454E"/><rect x="70" y="69" width="61" height="27" rx="7" fill="#8CDC70"/><rect x="70" y="101" width="61" height="27" rx="7" fill="#58B765"/><rect x="70" y="133" width="61" height="27" rx="7" fill="#2B8753"/><rect x="90" y="31" width="31" height="13" rx="5" fill="#66717B"/><rect x="77" y="177" width="112" height="47" rx="12" fill="#252B32"/><path d="M91 207c13-15 24-17 36-9s23 4 38-15" fill="none" stroke="#83D66F" stroke-width="7" stroke-linecap="round"/><g fill="#83D66F"><circle cx="91" cy="207" r="6"/><circle cx="127" cy="198" r="6"/><circle cx="165" cy="183" r="6"/></g><ellipse cx="185" cy="91" rx="25" ry="8" fill="#434B54"/><rect x="160" y="91" width="50" height="47" fill="#343B43"/><ellipse cx="185" cy="138" rx="25" ry="8" fill="#2D333A"/><circle cx="194" cy="170" r="21" fill="none" stroke="#83D66F" stroke-width="8"/><path d="M209 185l14 14" stroke="#83D66F" stroke-width="8" stroke-linecap="round"/></svg>